<svg xmlns="http://www.w3.org/2000/svg" version="1.1" xmlns:xlink="http://www.w3.org/1999/xlink" xmlns:svgjs="http://svgjs.com/svgjs" width="1440" height="560" preserveAspectRatio="none" viewBox="0 0 1440 560"><g mask="url(&quot;#SvgjsMask1000&quot;)" fill="none"><rect width="1440" height="560" x="0" y="0" fill="#0e2a47"></rect><path d="M-58.99 403.27L-58.99 403.27" stroke="#132e65" stroke-width="1.5"></path><path d="M-58.99 403.27L54.29 403.72" stroke="#132e65" stroke-width="1.5"></path><path d="M-58.99 403.27L46.81 544.1" stroke="#132e65" stroke-width="1.5"></path><path d="M-58.99 643.63L-58.99 643.63" stroke="#132e65" stroke-width="1.5"></path><path d="M-58.99 643.63L46.81 544.1" stroke="#132e65" stroke-width="1.5"></path><path d="M-58.99 643.63L105.81 669.09" stroke="#132e65" stroke-width="1.5"></path><path d="M-58.99 643.63L-58.99 403.27" stroke="#132e65" stroke-width="1.5"></path><path d="M-58.99 643.63L190.61 556.92" stroke="#132e65" stroke-width="1.5"></path><path d="M-58.99 643.63L54.29 403.72" stroke="#132e65" stroke-width="1.5"></path><path d="M54.29 403.72L54.29 403.72" stroke="#132e65" stroke-width="1.5"></path><path d="M54.29 403.72L46.81 544.1" stroke="#132e65" stroke-width="1.5"></path><path d="M54.29 403.72L190.61 556.92" stroke="#132e65" stroke-width="1.5"></path><path d="M46.81 544.1L46.81 544.1" stroke="#132e65" stroke-width="1.5"></path><path d="M46.81 544.1L105.81 669.09" stroke="#132e65" stroke-width="1.5"></path><path d="M46.81 544.1L190.61 556.92" stroke="#132e65" stroke-width="1.5"></path><path d="M105.81 669.09L105.81 669.09" stroke="#132e65" stroke-width="1.5"></path><path d="M105.81 669.09L206.96 676.27" stroke="#132e65" stroke-width="1.5"></path><path d="M105.81 669.09L190.61 556.92" stroke="#132e65" stroke-width="1.5"></path><path d="M105.81 669.09L54.29 403.72" stroke="#132e65" stroke-width="1.5"></path><path d="M190.61 556.92L190.61 556.92" stroke="#132e65" stroke-width="1.5"></path><path d="M190.61 556.92L206.96 676.27" stroke="#132e65" stroke-width="1.5"></path><path d="M206.96 676.27L206.96 676.27" stroke="#132e65" stroke-width="1.5"></path><path d="M206.96 676.27L398.51 711.35" stroke="#132e65" stroke-width="1.5"></path><path d="M398.51 711.35L398.51 711.35" stroke="#132e65" stroke-width="1.5"></path><path d="M398.51 711.35L490.63 669.75" stroke="#132e65" stroke-width="1.5"></path><path d="M398.51 711.35L496.22 499.54" stroke="#132e65" stroke-width="1.5"></path><path d="M398.51 711.35L190.61 556.92" stroke="#132e65" stroke-width="1.5"></path><path d="M398.51 711.35L105.81 669.09" stroke="#132e65" stroke-width="1.5"></path><path d="M398.51 711.35L691.01 652.1" stroke="#132e65" stroke-width="1.5"></path><path d="M553.08 382.07L553.08 382.07" stroke="#132e65" stroke-width="1.5"></path><path d="M553.08 382.07L496.22 499.54" stroke="#132e65" stroke-width="1.5"></path><path d="M553.08 382.07L638.2 493.44" stroke="#132e65" stroke-width="1.5"></path><path d="M553.08 382.07L704.46 341.27" stroke="#132e65" stroke-width="1.5"></path><path d="M553.08 382.07L711.2 245.91" stroke="#132e65" stroke-width="1.5"></path><path d="M496.22 499.54L496.22 499.54" stroke="#132e65" stroke-width="1.5"></path><path d="M496.22 499.54L638.2 493.44" stroke="#132e65" stroke-width="1.5"></path><path d="M496.22 499.54L490.63 669.75" stroke="#132e65" stroke-width="1.5"></path><path d="M490.63 669.75L490.63 669.75" stroke="#132e65" stroke-width="1.5"></path><path d="M490.63 669.75L691.01 652.1" stroke="#132e65" stroke-width="1.5"></path><path d="M711.2 245.91L711.2 245.91" stroke="#132e65" stroke-width="1.5"></path><path d="M711.2 245.91L704.46 341.27" stroke="#132e65" stroke-width="1.5"></path><path d="M711.2 245.91L818.08 394.45" stroke="#132e65" stroke-width="1.5"></path><path d="M704.46 341.27L704.46 341.27" stroke="#132e65" stroke-width="1.5"></path><path d="M704.46 341.27L818.08 394.45" stroke="#132e65" stroke-width="1.5"></path><path d="M638.2 493.44L638.2 493.44" stroke="#132e65" stroke-width="1.5"></path><path d="M638.2 493.44L704.46 341.27" stroke="#132e65" stroke-width="1.5"></path><path d="M638.2 493.44L691.01 652.1" stroke="#132e65" stroke-width="1.5"></path><path d="M691.01 652.1L691.01 652.1" stroke="#132e65" stroke-width="1.5"></path><path d="M691.01 652.1L788.83 670.06" stroke="#132e65" stroke-width="1.5"></path><path d="M691.01 652.1L836.62 557.61" stroke="#132e65" stroke-width="1.5"></path><path d="M818.08 394.45L818.08 394.45" stroke="#132e65" stroke-width="1.5"></path><path d="M818.08 394.45L836.62 557.61" stroke="#132e65" stroke-width="1.5"></path><path d="M818.08 394.45L977.83 353.3" stroke="#132e65" stroke-width="1.5"></path><path d="M836.62 557.61L836.62 557.61" stroke="#132e65" stroke-width="1.5"></path><path d="M836.62 557.61L788.83 670.06" stroke="#132e65" stroke-width="1.5"></path><path d="M836.62 557.61L962.26 545.13" stroke="#132e65" stroke-width="1.5"></path><path d="M836.62 557.61L985.68 656.67" stroke="#132e65" stroke-width="1.5"></path><path d="M836.62 557.61L638.2 493.44" stroke="#132e65" stroke-width="1.5"></path><path d="M788.83 670.06L788.83 670.06" stroke="#132e65" stroke-width="1.5"></path><path d="M960.52 -101.59L960.52 -101.59" stroke="#132e65" stroke-width="1.5"></path><path d="M960.52 -101.59L1112.31 -104.37" stroke="#132e65" stroke-width="1.5"></path><path d="M971.91 98.4L971.91 98.4" stroke="#132e65" stroke-width="1.5"></path><path d="M971.91 98.4L988.29 196.89" stroke="#132e65" stroke-width="1.5"></path><path d="M971.91 98.4L1152.53 110.47" stroke="#132e65" stroke-width="1.5"></path><path d="M988.29 196.89L988.29 196.89" stroke="#132e65" stroke-width="1.5"></path><path d="M988.29 196.89L977.83 353.3" stroke="#132e65" stroke-width="1.5"></path><path d="M988.29 196.89L1152.53 110.47" stroke="#132e65" stroke-width="1.5"></path><path d="M988.29 196.89L1158.69 391.35" stroke="#132e65" stroke-width="1.5"></path><path d="M977.83 353.3L977.83 353.3" stroke="#132e65" stroke-width="1.5"></path><path d="M977.83 353.3L1158.69 391.35" stroke="#132e65" stroke-width="1.5"></path><path d="M977.83 353.3L962.26 545.13" stroke="#132e65" stroke-width="1.5"></path><path d="M977.83 353.3L1090.88 551.1" stroke="#132e65" stroke-width="1.5"></path><path d="M962.26 545.13L962.26 545.13" stroke="#132e65" stroke-width="1.5"></path><path d="M962.26 545.13L985.68 656.67" stroke="#132e65" stroke-width="1.5"></path><path d="M962.26 545.13L1090.88 551.1" stroke="#132e65" stroke-width="1.5"></path><path d="M985.68 656.67L985.68 656.67" stroke="#132e65" stroke-width="1.5"></path><path d="M985.68 656.67L1125.78 668.57" stroke="#132e65" stroke-width="1.5"></path><path d="M985.68 656.67L1090.88 551.1" stroke="#132e65" stroke-width="1.5"></path><path d="M1112.31 -104.37L1112.31 -104.37" stroke="#132e65" stroke-width="1.5"></path><path d="M1112.31 -104.37L1296.03 -75.57" stroke="#132e65" stroke-width="1.5"></path><path d="M1152.53 110.47L1152.53 110.47" stroke="#132e65" stroke-width="1.5"></path><path d="M1152.53 110.47L1309.05 54.1" stroke="#132e65" stroke-width="1.5"></path><path d="M1152.53 110.47L1112.31 -104.37" stroke="#132e65" stroke-width="1.5"></path><path d="M1152.53 110.47L1296.03 -75.57" stroke="#132e65" stroke-width="1.5"></path><path d="M1152.53 110.47L1158.69 391.35" stroke="#132e65" stroke-width="1.5"></path><path d="M1158.69 391.35L1158.69 391.35" stroke="#132e65" stroke-width="1.5"></path><path d="M1158.69 391.35L1260.39 394.17" stroke="#132e65" stroke-width="1.5"></path><path d="M1158.69 391.35L1090.88 551.1" stroke="#132e65" stroke-width="1.5"></path><path d="M1090.88 551.1L1090.88 551.1" stroke="#132e65" stroke-width="1.5"></path><path d="M1090.88 551.1L1125.78 668.57" stroke="#132e65" stroke-width="1.5"></path><path d="M1125.78 668.57L1125.78 668.57" stroke="#132e65" stroke-width="1.5"></path><path d="M1296.03 -75.57L1296.03 -75.57" stroke="#132e65" stroke-width="1.5"></path><path d="M1296.03 -75.57L1309.05 54.1" stroke="#132e65" stroke-width="1.5"></path><path d="M1296.03 -75.57L1461.27 -60.7" stroke="#132e65" stroke-width="1.5"></path><path d="M1309.05 54.1L1309.05 54.1" stroke="#132e65" stroke-width="1.5"></path><path d="M1309.05 54.1L1461.27 -60.7" stroke="#132e65" stroke-width="1.5"></path><path d="M1309.05 54.1L1445.61 245.74" stroke="#132e65" stroke-width="1.5"></path><path d="M1309.05 54.1L1543.17 96.41" stroke="#132e65" stroke-width="1.5"></path><path d="M1260.39 394.17L1260.39 394.17" stroke="#132e65" stroke-width="1.5"></path><path d="M1260.39 394.17L1238.85 557.34" stroke="#132e65" stroke-width="1.5"></path><path d="M1260.39 394.17L1426.64 399.62" stroke="#132e65" stroke-width="1.5"></path><path d="M1260.39 394.17L1435.67 540.58" stroke="#132e65" stroke-width="1.5"></path><path d="M1260.39 394.17L1090.88 551.1" stroke="#132e65" stroke-width="1.5"></path><path d="M1238.85 557.34L1238.85 557.34" stroke="#132e65" stroke-width="1.5"></path><path d="M1238.85 557.34L1090.88 551.1" stroke="#132e65" stroke-width="1.5"></path><path d="M1238.85 557.34L1125.78 668.57" stroke="#132e65" stroke-width="1.5"></path><path d="M1238.85 557.34L1309.54 700.47" stroke="#132e65" stroke-width="1.5"></path><path d="M1309.54 700.47L1309.54 700.47" stroke="#132e65" stroke-width="1.5"></path><path d="M1309.54 700.47L1421.7 678.99" stroke="#132e65" stroke-width="1.5"></path><path d="M1309.54 700.47L1125.78 668.57" stroke="#132e65" stroke-width="1.5"></path><path d="M1309.54 700.47L1435.67 540.58" stroke="#132e65" stroke-width="1.5"></path><path d="M1309.54 700.47L1569.3 684.46" stroke="#132e65" stroke-width="1.5"></path><path d="M1309.54 700.47L1090.88 551.1" stroke="#132e65" stroke-width="1.5"></path><path d="M1461.27 -60.7L1461.27 -60.7" stroke="#132e65" stroke-width="1.5"></path><path d="M1461.27 -60.7L1548.05 -46.24" stroke="#132e65" stroke-width="1.5"></path><path d="M1445.61 245.74L1445.61 245.74" stroke="#132e65" stroke-width="1.5"></path><path d="M1445.61 245.74L1580.72 228.37" stroke="#132e65" stroke-width="1.5"></path><path d="M1445.61 245.74L1548.06 361.08" stroke="#132e65" stroke-width="1.5"></path><path d="M1445.61 245.74L1426.64 399.62" stroke="#132e65" stroke-width="1.5"></path><path d="M1426.64 399.62L1426.64 399.62" stroke="#132e65" stroke-width="1.5"></path><path d="M1426.64 399.62L1548.06 361.08" stroke="#132e65" stroke-width="1.5"></path><path d="M1426.64 399.62L1435.67 540.58" stroke="#132e65" stroke-width="1.5"></path><path d="M1426.64 399.62L1560.94 561.86" stroke="#132e65" stroke-width="1.5"></path><path d="M1435.67 540.58L1435.67 540.58" stroke="#132e65" stroke-width="1.5"></path><path d="M1435.67 540.58L1560.94 561.86" stroke="#132e65" stroke-width="1.5"></path><path d="M1435.67 540.58L1421.7 678.99" stroke="#132e65" stroke-width="1.5"></path><path d="M1421.7 678.99L1421.7 678.99" stroke="#132e65" stroke-width="1.5"></path><path d="M1421.7 678.99L1569.3 684.46" stroke="#132e65" stroke-width="1.5"></path><path d="M1421.7 678.99L1560.94 561.86" stroke="#132e65" stroke-width="1.5"></path><path d="M1421.7 678.99L1238.85 557.34" stroke="#132e65" stroke-width="1.5"></path><path d="M1421.7 678.99L1426.64 399.62" stroke="#132e65" stroke-width="1.5"></path><path d="M1548.05 -46.24L1548.05 -46.24" stroke="#132e65" stroke-width="1.5"></path><path d="M1548.05 -46.24L1543.17 96.41" stroke="#132e65" stroke-width="1.5"></path><path d="M1543.17 96.41L1543.17 96.41" stroke="#132e65" stroke-width="1.5"></path><path d="M1543.17 96.41L1580.72 228.37" stroke="#132e65" stroke-width="1.5"></path><path d="M1543.17 96.41L1461.27 -60.7" stroke="#132e65" stroke-width="1.5"></path><path d="M1543.17 96.41L1445.61 245.74" stroke="#132e65" stroke-width="1.5"></path><path d="M1580.72 228.37L1580.72 228.37" stroke="#132e65" stroke-width="1.5"></path><path d="M1580.72 228.37L1548.06 361.08" stroke="#132e65" stroke-width="1.5"></path><path d="M1580.72 228.37L1426.64 399.62" stroke="#132e65" stroke-width="1.5"></path><path d="M1580.72 228.37L1548.05 -46.24" stroke="#132e65" stroke-width="1.5"></path><path d="M1580.72 228.37L1461.27 -60.7" stroke="#132e65" stroke-width="1.5"></path><path d="M1548.06 361.08L1548.06 361.08" stroke="#132e65" stroke-width="1.5"></path><path d="M1548.06 361.08L1560.94 561.86" stroke="#132e65" stroke-width="1.5"></path><path d="M1560.94 561.86L1560.94 561.86" stroke="#132e65" stroke-width="1.5"></path><path d="M1560.94 561.86L1569.3 684.46" stroke="#132e65" stroke-width="1.5"></path><path d="M1569.3 684.46L1569.3 684.46" stroke="#132e65" stroke-width="1.5"></path><path d="M1569.3 684.46L1435.67 540.58" stroke="#132e65" stroke-width="1.5"></path><circle r="5" cx="-58.99" cy="403.27" fill="#132e65"></circle><circle r="5" cx="-58.99" cy="643.63" fill="#132e65"></circle><circle r="5" cx="54.29" cy="403.72" fill="#132e65"></circle><circle r="5" cx="46.81" cy="544.1" fill="#132e65"></circle><circle r="5" cx="105.81" cy="669.09" fill="#132e65"></circle><circle r="5" cx="190.61" cy="556.92" fill="#132e65"></circle><circle r="5" cx="206.96" cy="676.27" fill="#132e65"></circle><circle r="5" cx="398.51" cy="711.35" fill="#132e65"></circle><circle r="5" cx="553.08" cy="382.07" fill="#132e65"></circle><circle r="5" cx="496.22" cy="499.54" fill="#132e65"></circle><circle r="5" cx="490.63" cy="669.75" fill="#132e65"></circle><circle r="5" cx="711.2" cy="245.91" fill="#132e65"></circle><circle r="5" cx="704.46" cy="341.27" fill="#132e65"></circle><circle r="5" cx="638.2" cy="493.44" fill="#132e65"></circle><circle r="5" cx="691.01" cy="652.1" fill="#132e65"></circle><circle r="5" cx="818.08" cy="394.45" fill="#132e65"></circle><circle r="5" cx="836.62" cy="557.61" fill="#132e65"></circle><circle r="5" cx="788.83" cy="670.06" fill="#132e65"></circle><circle r="5" cx="960.52" cy="-101.59" fill="#132e65"></circle><circle r="5" cx="971.91" cy="98.4" fill="#132e65"></circle><circle r="5" cx="988.29" cy="196.89" fill="#132e65"></circle><circle r="5" cx="977.83" cy="353.3" fill="#132e65"></circle><circle r="5" cx="962.26" cy="545.13" fill="#132e65"></circle><circle r="5" cx="985.68" cy="656.67" fill="#132e65"></circle><circle r="5" cx="1112.31" cy="-104.37" fill="#132e65"></circle><circle r="5" cx="1152.53" cy="110.47" fill="#132e65"></circle><circle r="5" cx="1158.69" cy="391.35" fill="#132e65"></circle><circle r="5" cx="1090.88" cy="551.1" fill="#132e65"></circle><circle r="5" cx="1125.78" cy="668.57" fill="#132e65"></circle><circle r="5" cx="1296.03" cy="-75.57" fill="#132e65"></circle><circle r="5" cx="1309.05" cy="54.1" fill="#132e65"></circle><circle r="5" cx="1260.39" cy="394.17" fill="#132e65"></circle><circle r="5" cx="1238.85" cy="557.34" fill="#132e65"></circle><circle r="5" cx="1309.54" cy="700.47" fill="#132e65"></circle><circle r="5" cx="1461.27" cy="-60.7" fill="#132e65"></circle><circle r="5" cx="1445.61" cy="245.74" fill="#132e65"></circle><circle r="5" cx="1426.64" cy="399.62" fill="#132e65"></circle><circle r="5" cx="1435.67" cy="540.58" fill="#132e65"></circle><circle r="5" cx="1421.7" cy="678.99" fill="#132e65"></circle><circle r="5" cx="1548.05" cy="-46.24" fill="#132e65"></circle><circle r="5" cx="1543.17" cy="96.41" fill="#132e65"></circle><circle r="5" cx="1580.72" cy="228.37" fill="#132e65"></circle><circle r="5" cx="1548.06" cy="361.08" fill="#132e65"></circle><circle r="5" cx="1560.94" cy="561.86" fill="#132e65"></circle><circle r="5" cx="1569.3" cy="684.46" fill="#132e65"></circle><path d="M-63.3 557.29L-63.3 557.29" stroke="hsl(228.5, 77.2%, 51.5%)" stroke-width="1.5"></path><path d="M-63.3 557.29L-66.82 663.12" stroke="hsl(228.5, 77.2%, 51.5%)" stroke-width="1.5"></path><path d="M-63.3 557.29L96.6 534.54" stroke="hsl(228.5, 77.2%, 51.5%)" stroke-width="1.5"></path><path d="M216.87 655.11L216.87 655.11" stroke="hsl(228.5, 77.2%, 51.5%)" stroke-width="1.5"></path><path d="M216.87 655.11L238.82 560.96" stroke="hsl(228.5, 77.2%, 51.5%)" stroke-width="1.5"></path><path d="M216.87 655.11L359.3 663.38" stroke="hsl(228.5, 77.2%, 51.5%)" stroke-width="1.5"></path><path d="M216.87 655.11L68.16 693.42" stroke="hsl(228.5, 77.2%, 51.5%)" stroke-width="1.5"></path><path d="M216.87 655.11L96.6 534.54" stroke="hsl(228.5, 77.2%, 51.5%)" stroke-width="1.5"></path><path d="M216.87 655.11L384.64 522.32" stroke="hsl(228.5, 77.2%, 51.5%)" stroke-width="1.5"></path><path d="M1274.07 -71.86L1274.07 -71.86" stroke="hsl(228.5, 77.2%, 51.5%)" stroke-width="1.5"></path><path d="M1274.07 -71.86L1249.91 39.88" stroke="hsl(228.5, 77.2%, 51.5%)" stroke-width="1.5"></path><path d="M1274.07 -71.86L1425.09 101.87" stroke="hsl(228.5, 77.2%, 51.5%)" stroke-width="1.5"></path><path d="M1249.91 39.88L1249.91 39.88" stroke="hsl(228.5, 77.2%, 51.5%)" stroke-width="1.5"></path><path d="M1249.91 39.88L1248.53 210.94" stroke="hsl(228.5, 77.2%, 51.5%)" stroke-width="1.5"></path><path d="M1249.91 39.88L1425.09 101.87" stroke="hsl(228.5, 77.2%, 51.5%)" stroke-width="1.5"></path><path d="M1249.91 39.88L1092.98 249.09" stroke="hsl(228.5, 77.2%, 51.5%)" stroke-width="1.5"></path><path d="M1249.91 39.88L1450.43 244.26" stroke="hsl(228.5, 77.2%, 51.5%)" stroke-width="1.5"></path><path d="M1237.61 390.1L1237.61 390.1" stroke="hsl(228.5, 77.2%, 51.5%)" stroke-width="1.5"></path><path d="M1237.61 390.1L1106.07 401.76" stroke="hsl(228.5, 77.2%, 51.5%)" stroke-width="1.5"></path><path d="M1237.61 390.1L1150.8 518.88" stroke="hsl(228.5, 77.2%, 51.5%)" stroke-width="1.5"></path><path d="M1237.61 390.1L1303.59 555.07" stroke="hsl(228.5, 77.2%, 51.5%)" stroke-width="1.5"></path><path d="M1237.61 390.1L1248.53 210.94" stroke="hsl(228.5, 77.2%, 51.5%)" stroke-width="1.5"></path><path d="M1237.61 390.1L1417.47 408.42" stroke="hsl(228.5, 77.2%, 51.5%)" stroke-width="1.5"></path><path d="M1237.61 390.1L1092.98 249.09" stroke="hsl(228.5, 77.2%, 51.5%)" stroke-width="1.5"></path><path d="M1450.43 244.26L1450.43 244.26" stroke="hsl(228.5, 77.2%, 51.5%)" stroke-width="1.5"></path><path d="M1450.43 244.26L1559.29 247.2" stroke="hsl(228.5, 77.2%, 51.5%)" stroke-width="1.5"></path><path d="M1450.43 244.26L1425.09 101.87" stroke="hsl(228.5, 77.2%, 51.5%)" stroke-width="1.5"></path><path d="M1538.98 -64.79L1538.98 -64.79" stroke="hsl(228.5, 77.2%, 51.5%)" stroke-width="1.5"></path><path d="M1538.98 -64.79L1550.27 102.36" stroke="hsl(228.5, 77.2%, 51.5%)" stroke-width="1.5"></path><path d="M1538.98 -64.79L1425.09 101.87" stroke="hsl(228.5, 77.2%, 51.5%)" stroke-width="1.5"></path><path d="M1538.98 -64.79L1274.07 -71.86" stroke="hsl(228.5, 77.2%, 51.5%)" stroke-width="1.5"></path><path d="M1538.98 -64.79L1249.91 39.88" stroke="hsl(228.5, 77.2%, 51.5%)" stroke-width="1.5"></path><path d="M-66.82 663.12L-66.82 663.12" stroke="hsl(228.5, 77.2%, 51.5%)" stroke-width="1.5"></path><path d="M-66.82 663.12L68.16 693.42" stroke="hsl(228.5, 77.2%, 51.5%)" stroke-width="1.5"></path><path d="M96.6 534.54L96.6 534.54" stroke="hsl(228.5, 77.2%, 51.5%)" stroke-width="1.5"></path><path d="M96.6 534.54L238.82 560.96" stroke="hsl(228.5, 77.2%, 51.5%)" stroke-width="1.5"></path><path d="M96.6 534.54L68.16 693.42" stroke="hsl(228.5, 77.2%, 51.5%)" stroke-width="1.5"></path><path d="M68.16 693.42L68.16 693.42" stroke="hsl(228.5, 77.2%, 51.5%)" stroke-width="1.5"></path><path d="M68.16 693.42L-63.3 557.29" stroke="hsl(228.5, 77.2%, 51.5%)" stroke-width="1.5"></path><path d="M68.16 693.42L238.82 560.96" stroke="hsl(228.5, 77.2%, 51.5%)" stroke-width="1.5"></path><path d="M238.82 560.96L238.82 560.96" stroke="hsl(228.5, 77.2%, 51.5%)" stroke-width="1.5"></path><path d="M238.82 560.96L384.64 522.32" stroke="hsl(228.5, 77.2%, 51.5%)" stroke-width="1.5"></path><path d="M384.64 522.32L384.64 522.32" stroke="hsl(228.5, 77.2%, 51.5%)" stroke-width="1.5"></path><path d="M384.64 522.32L497.08 556.15" stroke="hsl(228.5, 77.2%, 51.5%)" stroke-width="1.5"></path><path d="M384.64 522.32L359.3 663.38" stroke="hsl(228.5, 77.2%, 51.5%)" stroke-width="1.5"></path><path d="M359.3 663.38L359.3 663.38" stroke="hsl(228.5, 77.2%, 51.5%)" stroke-width="1.5"></path><path d="M359.3 663.38L238.82 560.96" stroke="hsl(228.5, 77.2%, 51.5%)" stroke-width="1.5"></path><path d="M359.3 663.38L497.08 556.15" stroke="hsl(228.5, 77.2%, 51.5%)" stroke-width="1.5"></path><path d="M359.3 663.38L537.95 661.6" stroke="hsl(228.5, 77.2%, 51.5%)" stroke-width="1.5"></path><path d="M497.08 556.15L497.08 556.15" stroke="hsl(228.5, 77.2%, 51.5%)" stroke-width="1.5"></path><path d="M497.08 556.15L537.95 661.6" stroke="hsl(228.5, 77.2%, 51.5%)" stroke-width="1.5"></path><path d="M537.95 661.6L537.95 661.6" stroke="hsl(228.5, 77.2%, 51.5%)" stroke-width="1.5"></path><path d="M537.95 661.6L650.22 685.83" stroke="hsl(228.5, 77.2%, 51.5%)" stroke-width="1.5"></path><path d="M537.95 661.6L641.33 545.25" stroke="hsl(228.5, 77.2%, 51.5%)" stroke-width="1.5"></path><path d="M641.33 545.25L641.33 545.25" stroke="hsl(228.5, 77.2%, 51.5%)" stroke-width="1.5"></path><path d="M641.33 545.25L650.22 685.83" stroke="hsl(228.5, 77.2%, 51.5%)" stroke-width="1.5"></path><path d="M641.33 545.25L497.08 556.15" stroke="hsl(228.5, 77.2%, 51.5%)" stroke-width="1.5"></path><path d="M650.22 685.83L650.22 685.83" stroke="hsl(228.5, 77.2%, 51.5%)" stroke-width="1.5"></path><path d="M850.75 348.07L850.75 348.07" stroke="hsl(228.5, 77.2%, 51.5%)" stroke-width="1.5"></path><path d="M850.75 348.07L952.73 261.1" stroke="hsl(228.5, 77.2%, 51.5%)" stroke-width="1.5"></path><path d="M850.75 348.07L986.4 365.85" stroke="hsl(228.5, 77.2%, 51.5%)" stroke-width="1.5"></path><path d="M850.75 348.07L823.65 547.19" stroke="hsl(228.5, 77.2%, 51.5%)" stroke-width="1.5"></path><path d="M850.75 348.07L1106.07 401.76" stroke="hsl(228.5, 77.2%, 51.5%)" stroke-width="1.5"></path><path d="M823.65 547.19L823.65 547.19" stroke="hsl(228.5, 77.2%, 51.5%)" stroke-width="1.5"></path><path d="M823.65 547.19L1005.23 559.46" stroke="hsl(228.5, 77.2%, 51.5%)" stroke-width="1.5"></path><path d="M823.65 547.19L641.33 545.25" stroke="hsl(228.5, 77.2%, 51.5%)" stroke-width="1.5"></path><path d="M823.65 547.19L968.54 676.96" stroke="hsl(228.5, 77.2%, 51.5%)" stroke-width="1.5"></path><path d="M952.73 261.1L952.73 261.1" stroke="hsl(228.5, 77.2%, 51.5%)" stroke-width="1.5"></path><path d="M952.73 261.1L986.4 365.85" stroke="hsl(228.5, 77.2%, 51.5%)" stroke-width="1.5"></path><path d="M952.73 261.1L1092.98 249.09" stroke="hsl(228.5, 77.2%, 51.5%)" stroke-width="1.5"></path><path d="M952.73 261.1L1106.07 401.76" stroke="hsl(228.5, 77.2%, 51.5%)" stroke-width="1.5"></path><path d="M986.4 365.85L986.4 365.85" stroke="hsl(228.5, 77.2%, 51.5%)" stroke-width="1.5"></path><path d="M986.4 365.85L1106.07 401.76" stroke="hsl(228.5, 77.2%, 51.5%)" stroke-width="1.5"></path><path d="M986.4 365.85L1092.98 249.09" stroke="hsl(228.5, 77.2%, 51.5%)" stroke-width="1.5"></path><path d="M986.4 365.85L1005.23 559.46" stroke="hsl(228.5, 77.2%, 51.5%)" stroke-width="1.5"></path><path d="M1005.23 559.46L1005.23 559.46" stroke="hsl(228.5, 77.2%, 51.5%)" stroke-width="1.5"></path><path d="M1005.23 559.46L968.54 676.96" stroke="hsl(228.5, 77.2%, 51.5%)" stroke-width="1.5"></path><path d="M1005.23 559.46L1116.72 643.19" stroke="hsl(228.5, 77.2%, 51.5%)" stroke-width="1.5"></path><path d="M1005.23 559.46L1150.8 518.88" stroke="hsl(228.5, 77.2%, 51.5%)" stroke-width="1.5"></path><path d="M1005.23 559.46L1106.07 401.76" stroke="hsl(228.5, 77.2%, 51.5%)" stroke-width="1.5"></path><path d="M968.54 676.96L968.54 676.96" stroke="hsl(228.5, 77.2%, 51.5%)" stroke-width="1.5"></path><path d="M968.54 676.96L1116.72 643.19" stroke="hsl(228.5, 77.2%, 51.5%)" stroke-width="1.5"></path><path d="M968.54 676.96L1150.8 518.88" stroke="hsl(228.5, 77.2%, 51.5%)" stroke-width="1.5"></path><path d="M1092.98 249.09L1092.98 249.09" stroke="hsl(228.5, 77.2%, 51.5%)" stroke-width="1.5"></path><path d="M1092.98 249.09L1106.07 401.76" stroke="hsl(228.5, 77.2%, 51.5%)" stroke-width="1.5"></path><path d="M1106.07 401.76L1106.07 401.76" stroke="hsl(228.5, 77.2%, 51.5%)" stroke-width="1.5"></path><path d="M1106.07 401.76L1150.8 518.88" stroke="hsl(228.5, 77.2%, 51.5%)" stroke-width="1.5"></path><path d="M1150.8 518.88L1150.8 518.88" stroke="hsl(228.5, 77.2%, 51.5%)" stroke-width="1.5"></path><path d="M1150.8 518.88L1116.72 643.19" stroke="hsl(228.5, 77.2%, 51.5%)" stroke-width="1.5"></path><path d="M1150.8 518.88L1303.59 555.07" stroke="hsl(228.5, 77.2%, 51.5%)" stroke-width="1.5"></path><path d="M1116.72 643.19L1116.72 643.19" stroke="hsl(228.5, 77.2%, 51.5%)" stroke-width="1.5"></path><path d="M1116.72 643.19L1304.76 658.73" stroke="hsl(228.5, 77.2%, 51.5%)" stroke-width="1.5"></path><path d="M1248.53 210.94L1248.53 210.94" stroke="hsl(228.5, 77.2%, 51.5%)" stroke-width="1.5"></path><path d="M1248.53 210.94L1092.98 249.09" stroke="hsl(228.5, 77.2%, 51.5%)" stroke-width="1.5"></path><path d="M1248.53 210.94L1450.43 244.26" stroke="hsl(228.5, 77.2%, 51.5%)" stroke-width="1.5"></path><path d="M1248.53 210.94L1425.09 101.87" stroke="hsl(228.5, 77.2%, 51.5%)" stroke-width="1.5"></path><path d="M1248.53 210.94L1106.07 401.76" stroke="hsl(228.5, 77.2%, 51.5%)" stroke-width="1.5"></path><path d="M1303.59 555.07L1303.59 555.07" stroke="hsl(228.5, 77.2%, 51.5%)" stroke-width="1.5"></path><path d="M1303.59 555.07L1304.76 658.73" stroke="hsl(228.5, 77.2%, 51.5%)" stroke-width="1.5"></path><path d="M1304.76 658.73L1304.76 658.73" stroke="hsl(228.5, 77.2%, 51.5%)" stroke-width="1.5"></path><path d="M1304.76 658.73L1397.59 705.87" stroke="hsl(228.5, 77.2%, 51.5%)" stroke-width="1.5"></path><path d="M1304.76 658.73L1150.8 518.88" stroke="hsl(228.5, 77.2%, 51.5%)" stroke-width="1.5"></path><path d="M1425.09 101.87L1425.09 101.87" stroke="hsl(228.5, 77.2%, 51.5%)" stroke-width="1.5"></path><path d="M1425.09 101.87L1550.27 102.36" stroke="hsl(228.5, 77.2%, 51.5%)" stroke-width="1.5"></path><path d="M1417.47 408.42L1417.47 408.42" stroke="hsl(228.5, 77.2%, 51.5%)" stroke-width="1.5"></path><path d="M1417.47 408.42L1450.43 244.26" stroke="hsl(228.5, 77.2%, 51.5%)" stroke-width="1.5"></path><path d="M1397.59 705.87L1397.59 705.87" stroke="hsl(228.5, 77.2%, 51.5%)" stroke-width="1.5"></path><path d="M1397.59 705.87L1555.64 694.99" stroke="hsl(228.5, 77.2%, 51.5%)" stroke-width="1.5"></path><path d="M1397.59 705.87L1303.59 555.07" stroke="hsl(228.5, 77.2%, 51.5%)" stroke-width="1.5"></path><path d="M1550.27 102.36L1550.27 102.36" stroke="hsl(228.5, 77.2%, 51.5%)" stroke-width="1.5"></path><path d="M1550.27 102.36L1559.29 247.2" stroke="hsl(228.5, 77.2%, 51.5%)" stroke-width="1.5"></path><path d="M1559.29 247.2L1559.29 247.2" stroke="hsl(228.5, 77.2%, 51.5%)" stroke-width="1.5"></path><path d="M1559.29 247.2L1600.54 382.53" stroke="hsl(228.5, 77.2%, 51.5%)" stroke-width="1.5"></path><path d="M1600.54 382.53L1600.54 382.53" stroke="hsl(228.5, 77.2%, 51.5%)" stroke-width="1.5"></path><path d="M1600.54 382.53L1575.24 526.25" stroke="hsl(228.5, 77.2%, 51.5%)" stroke-width="1.5"></path><path d="M1575.24 526.25L1575.24 526.25" stroke="hsl(228.5, 77.2%, 51.5%)" stroke-width="1.5"></path><path d="M1575.24 526.25L1555.64 694.99" stroke="hsl(228.5, 77.2%, 51.5%)" stroke-width="1.5"></path><path d="M1575.24 526.25L1417.47 408.42" stroke="hsl(228.5, 77.2%, 51.5%)" stroke-width="1.5"></path><path d="M1555.64 694.99L1555.64 694.99" stroke="hsl(228.5, 77.2%, 51.5%)" stroke-width="1.5"></path><circle r="25" cx="-63.3" cy="557.29" fill="url(#SvgjsRadialGradient1001)"></circle><circle r="25" cx="216.87" cy="655.11" fill="url(#SvgjsRadialGradient1001)"></circle><circle r="25" cx="1274.07" cy="-71.86" fill="url(#SvgjsRadialGradient1001)"></circle><circle r="25" cx="1249.91" cy="39.88" fill="url(#SvgjsRadialGradient1001)"></circle><circle r="25" cx="1237.61" cy="390.1" fill="url(#SvgjsRadialGradient1001)"></circle><circle r="25" cx="1450.43" cy="244.26" fill="url(#SvgjsRadialGradient1001)"></circle><circle r="25" cx="1538.98" cy="-64.79" fill="url(#SvgjsRadialGradient1001)"></circle><circle r="5" cx="-66.82" cy="663.12" fill="#8b9ad9"></circle><circle r="5" cx="96.6" cy="534.54" fill="#8b9ad9"></circle><circle r="5" cx="68.16" cy="693.42" fill="#8b9ad9"></circle><circle r="5" cx="238.82" cy="560.96" fill="#8b9ad9"></circle><circle r="5" cx="384.64" cy="522.32" fill="#8b9ad9"></circle><circle r="5" cx="359.3" cy="663.38" fill="#8b9ad9"></circle><circle r="5" cx="497.08" cy="556.15" fill="#8b9ad9"></circle><circle r="5" cx="537.95" cy="661.6" fill="#8b9ad9"></circle><circle r="5" cx="641.33" cy="545.25" fill="#8b9ad9"></circle><circle r="5" cx="650.22" cy="685.83" fill="#8b9ad9"></circle><circle r="5" cx="850.75" cy="348.07" fill="#8b9ad9"></circle><circle r="5" cx="823.65" cy="547.19" fill="#8b9ad9"></circle><circle r="5" cx="952.73" cy="261.1" fill="#8b9ad9"></circle><circle r="5" cx="986.4" cy="365.85" fill="#8b9ad9"></circle><circle r="5" cx="1005.23" cy="559.46" fill="#8b9ad9"></circle><circle r="5" cx="968.54" cy="676.96" fill="#8b9ad9"></circle><circle r="5" cx="1092.98" cy="249.09" fill="#8b9ad9"></circle><circle r="5" cx="1106.07" cy="401.76" fill="#8b9ad9"></circle><circle r="5" cx="1150.8" cy="518.88" fill="#8b9ad9"></circle><circle r="5" cx="1116.72" cy="643.19" fill="#8b9ad9"></circle><circle r="5" cx="1248.53" cy="210.94" fill="#8b9ad9"></circle><circle r="5" cx="1303.59" cy="555.07" fill="#8b9ad9"></circle><circle r="5" cx="1304.76" cy="658.73" fill="#8b9ad9"></circle><circle r="5" cx="1425.09" cy="101.87" fill="#8b9ad9"></circle><circle r="5" cx="1417.47" cy="408.42" fill="#8b9ad9"></circle><circle r="5" cx="1397.59" cy="705.87" fill="#8b9ad9"></circle><circle r="5" cx="1550.27" cy="102.36" fill="#8b9ad9"></circle><circle r="5" cx="1559.29" cy="247.2" fill="#8b9ad9"></circle><circle r="5" cx="1600.54" cy="382.53" fill="#8b9ad9"></circle><circle r="5" cx="1575.24" cy="526.25" fill="#8b9ad9"></circle><circle r="5" cx="1555.64" cy="694.99" fill="#8b9ad9"></circle></g><defs><mask id="SvgjsMask1000"><rect width="1440" height="560" fill="#ffffff"></rect></mask><radialGradient id="SvgjsRadialGradient1001"><stop stop-color="#ffffff" offset="0.1"></stop><stop stop-color="#1735b3" offset="0.2"></stop><stop stop-color="rgba(23, 53, 179, 0)" offset="1"></stop></radialGradient></defs></svg>